<svg xmlns="http://www.w3.org/2000/svg" viewBox="0 0 500 500"><defs><style>.cls-1{fill:#fff}</style></defs><g id="Layer_2" data-name="Layer 2"><g id="innoflow-logo-small"><path d="M0 127V0h500v134c-17.17-.55-32.05 5.57-44.9 16.43-22.73 19.22-32.54 44.56-32.86 73.75-.35 31.82 0 63.65-.21 95.47-.12 14.75-5.31 27.73-16 38.09-15.21 14.68-36.89 14.65-52-.09-11.11-10.81-16-24.32-16-39.63-.08-31.32 0-62.65 0-94-.06-22.09-5.83-42.46-19.11-60.35-30.92-41.56-86.58-41.67-117.5-.18-13.33 17.86-19.17 38.21-19.23 60.31-.1 31.82.05 63.65-.12 95.47-.08 14-4.73 26.5-14.41 36.79-15.87 16.85-39.3 16.88-55.22 0-10.23-10.82-14.55-24-14.55-38.76 0-28.82.25-57.65-.06-86.48-.53-49-20.35-89.18-57-121.26a96.58 96.58 0 0 0-28.49-17.48c-.86 2.47-1.61 4.66-2.39 6.84Q5 112.95 0 127z" class="cls-1"/><path d="M500 173v327H0V129c4.65 2.56 9.73 4.56 13.87 7.78C44 160.11 61.15 190.59 62 229.05c.67 29 .08 58 .15 87 .06 23.36 6.33 44.74 21 63.21 29.61 37.18 79.65 38.56 111.09 2.94 16.27-18.43 23.38-40.45 23.53-64.76.19-31.34.07-62.67 0-94 0-13.81 3.8-26.3 12.66-37 16.09-19.44 42.81-19.46 58.92 0 8.76 10.55 12.67 22.86 12.66 36.5 0 32-.17 64 .11 96 .18 20.3 5.83 39.08 17.57 55.84 31 44.25 89.18 44.35 120.3.18 12.3-17.47 17.71-37.11 17.77-58.3.07-30.34-.1-60.67.12-91a73.16 73.16 0 0 1 2.27-18.24c5.59-20.55 21.14-33.73 39.85-34.42z" class="cls-1"/><path d="M500 173c-18.71.72-34.26 13.9-39.74 34.4a73.16 73.16 0 0 0-2.26 18.21c-.22 30.34-.05 60.67-.12 91-.06 21.19-5.47 40.83-17.77 58.3C409 419.09 350.8 419 319.8 374.74c-11.74-16.74-17.39-35.54-17.57-55.84-.28-32-.12-64-.11-96 0-13.64-3.9-25.95-12.66-36.5-16.11-19.43-42.83-19.41-58.92 0-8.86 10.71-12.68 23.2-12.66 37 0 31.34.15 62.67 0 94-.15 24.31-7.26 46.33-23.53 64.76-31.44 35.62-81.48 34.24-111.09-2.94-14.71-18.47-21-39.85-21-63.21-.07-29 .52-58-.15-87-.88-38.46-18-68.94-48.16-92.3-4.22-3.18-9.3-5.18-13.95-7.71v-2l10-28c.78-2.18 1.53-4.37 2.39-6.84a96.58 96.58 0 0 1 28.44 17.44c36.65 32.08 56.47 72.24 57 121.26.31 28.83 0 57.66.06 86.48 0 14.74 4.32 27.94 14.55 38.76 15.92 16.84 39.35 16.81 55.22 0 9.68-10.29 14.33-22.77 14.41-36.79.17-31.82 0-63.65.12-95.47.06-22.1 5.9-42.45 19.23-60.31 30.92-41.45 86.53-41.38 117.34.17 13.24 17.85 19.05 38.22 19.11 60.3.07 31.33 0 62.66 0 94 0 15.31 4.92 28.82 16 39.63 15.15 14.74 36.83 14.77 52 .09 10.74-10.36 15.93-23.34 16-38.09.25-31.82-.14-63.65.21-95.47.32-29.19 10.13-54.53 32.86-73.75 12.85-10.86 27.73-17 44.9-16.43z"/></g></g></svg>