<?xml version="1.0" encoding="utf-8"?>
<!-- Generator: Adobe Illustrator 26.0.1, SVG Export Plug-In . SVG Version: 6.00 Build 0)  -->
<svg version="1.1" id="Layer_1" xmlns="http://www.w3.org/2000/svg" xmlns:xlink="http://www.w3.org/1999/xlink" x="0px" y="0px"
	 viewBox="0 0 500 500" style="enable-background:new 0 0 500 500;" xml:space="preserve">
<path d="M500,172.9c-18.7,0.7-34.3,13.9-39.7,34.4c-1.5,6-2.3,12.1-2.3,18.2c-0.2,30.3,0,60.7-0.1,91c-0.1,21.2-5.5,40.8-17.8,58.3
	c-31.1,44.2-89.3,44.1-120.3-0.2c-11.7-16.7-17.4-35.5-17.6-55.8c-0.3-32-0.1-64-0.1-96c0-13.6-3.9-25.9-12.7-36.5
	c-16.1-19.4-42.8-19.4-58.9,0c-8.9,10.7-12.7,23.2-12.7,37c0,31.3,0.1,62.7,0,94c-0.1,24.3-7.3,46.3-23.5,64.8
	c-31.4,35.6-81.5,34.2-111.1-2.9c-14.7-18.5-21-39.9-21-63.2c-0.1-29,0.5-58-0.2-87c-0.9-38.5-18-68.9-48.2-92.3
	c-4.2-3.2-9.3-5.2-14-7.7v-2l10-28c0.8-2.2,1.5-4.4,2.4-6.8c10.4,4.1,20,10,28.4,17.4c36.6,32.1,56.5,72.2,57,121.3
	c0.3,28.8,0,57.7,0.1,86.5c0,14.7,4.3,27.9,14.6,38.8c15.9,16.8,39.3,16.8,55.2,0c9.7-10.3,14.3-22.8,14.4-36.8
	c0.2-31.8,0-63.7,0.1-95.5c0.1-22.1,5.9-42.4,19.2-60.3c30.9-41.4,86.5-41.4,117.3,0.2c13.2,17.9,19,38.2,19.1,60.3
	c0.1,31.3,0,62.7,0,94c0,15.3,4.9,28.8,16,39.6c15.1,14.7,36.8,14.8,52,0.1c10.7-10.4,15.9-23.3,16-38.1c0.2-31.8-0.1-63.7,0.2-95.5
	c0.3-29.2,10.1-54.5,32.9-73.8c12.9-10.9,27.7-17,44.9-16.4L500,172.9z"/>
</svg>
